Coordinates
version=1
nRows=20
nColumns=63
inDegrees=yes

Units are S.I. units (second, meters, Newtons, ...)
If the header above contains a line with 'inDegrees', this indicates whether rotational values are in degrees (yes) or radians (no).

endheader
time	pelvis_tilt	pelvis_list	pelvis_rotation	pelvis_tx	pelvis_ty	pelvis_tz	hip_flexion_r	hip_adduction_r	hip_rotation_r	knee_angle_r	knee_angle_r_beta	ankle_angle_r	subtalar_angle_r	mtp_angle_r	hip_flexion_l	hip_adduction_l	hip_rotation_l	knee_angle_l	knee_angle_l_beta	ankle_angle_l	subtalar_angle_l	mtp_angle_l	L5_S1_Flex_Ext	L5_S1_Lat_Bending	L5_S1_axial_rotation	L4_L5_Flex_Ext	L4_L5_Lat_Bending	L4_L5_axial_rotation	L3_L4_Flex_Ext	L3_L4_Lat_Bending	L3_L4_axial_rotation	L2_L3_Flex_Ext	L2_L3_Lat_Bending	L2_L3_axial_rotation	L1_L2_Flex_Ext	L1_L2_Lat_Bending	L1_L2_axial_rotation	L1_T12_Flex_Ext	L1_T12_Lat_Bending	L1_T12_axial_rotation	Abs_r3	Abs_r2	Abs_r1	Abs_t1	Abs_t2	neck_flexion	neck_bending	neck_rotation	arm_flex_r	arm_add_r	arm_rot_r	elbow_flex_r	pro_sup_r	wrist_flex_r	wrist_dev_r	arm_flex_l	arm_add_l	arm_rot_l	elbow_flex_l	pro_sup_l	wrist_flex_l	wrist_dev_l
2.615385	-1.173398	1.509185	87.235006	0.200585	0.728724	0.855580	6.780384	-3.060515	15.877693	3.453533	0.060276	22.758554	-8.157931	0.000000	7.156494	1.959370	-13.843470	8.603575	0.150161	30.893599	11.294490	0.000000	0.235568	-0.236154	0.178982	0.437473	-0.314084	0.190168	0.387015	-0.574184	0.190168	0.269231	-0.574184	0.156609	0.218748	-0.481565	0.145423	0.134604	-0.365802	0.134236	1.682639	-2.671418	0.995443	0.000000	0.000000	27.892650	9.103699	-3.150819	12.251364	-11.061910	25.743237	61.225172	89.092394	4.756070	10.405573	11.600812	-13.732157	40.171892	37.369841	71.163029	-5.887358	-7.740176
2.634615	-1.162000	1.533535	87.272686	0.200621	0.728747	0.855644	6.686686	-3.047082	16.308682	3.309182	0.057756	22.648484	-8.803617	0.000000	7.141490	1.947667	-13.756364	8.568716	0.149552	31.013969	11.420832	0.000000	0.224877	-0.236542	0.169849	0.417619	-0.314601	0.180464	0.369451	-0.575128	0.180464	0.257012	-0.575128	0.148618	0.208821	-0.482356	0.138002	0.128495	-0.366404	0.127387	1.606275	-2.675811	0.944649	0.000000	0.000000	27.767590	8.569250	-3.277393	12.473447	-11.228651	25.810930	61.262064	89.007192	5.234291	10.934802	11.862175	-13.657030	40.298567	37.346199	71.258232	-5.367690	-6.877919
2.653846	-1.143606	1.552970	87.299239	0.200624	0.728722	0.855697	6.618227	-3.021494	16.721173	3.220139	0.056202	22.565113	-9.431437	0.000000	7.125815	1.936347	-13.610936	8.522737	0.148750	31.128415	11.481952	0.000000	0.213409	-0.235031	0.164950	0.396322	-0.312591	0.175260	0.350610	-0.571454	0.175260	0.243905	-0.571454	0.144331	0.198172	-0.479275	0.134022	0.121942	-0.364063	0.123713	1.524360	-2.658714	0.917403	0.000000	0.000000	27.590294	7.972295	-3.270775	12.516065	-11.376587	25.875836	61.293874	88.826463	5.621261	11.431138	12.175596	-13.552967	40.647903	37.176930	71.799136	-4.849412	-6.087484
2.673077	-1.126741	1.577046	87.304354	0.200616	0.728662	0.855772	6.588037	-2.997104	16.941243	3.227908	0.056338	22.568948	-9.798938	0.000000	7.108635	1.925032	-13.513967	8.493084	0.148232	31.239226	11.562421	0.000000	0.199050	-0.233206	0.168612	0.369656	-0.310164	0.179150	0.327020	-0.567017	0.179150	0.227495	-0.567017	0.147535	0.184838	-0.475554	0.136997	0.113737	-0.361236	0.126459	1.421797	-2.638074	0.937767	0.000000	0.000000	27.344788	7.319319	-3.137869	12.386157	-11.498830	25.965929	61.289078	88.594370	5.753490	11.742273	12.607292	-13.393719	41.458739	36.798916	72.678423	-4.416921	-5.510876
2.692308	-1.108245	1.591732	87.294464	0.200569	0.728530	0.855816	6.600916	-2.971567	16.998264	3.320171	0.057948	22.659448	-9.943734	0.000000	7.092774	1.916196	-13.441340	8.459697	0.147650	31.344492	11.627235	0.000000	0.185385	-0.230942	0.178228	0.344279	-0.307153	0.189367	0.304569	-0.561513	0.189367	0.211877	-0.561513	0.155949	0.172149	-0.470938	0.144810	0.105929	-0.357730	0.133671	1.324187	-2.612466	0.991248	0.000000	0.000000	27.043203	6.585229	-2.979296	12.055956	-11.553559	25.915422	61.278779	88.308441	5.912152	12.138976	13.144881	-13.195693	42.758732	36.246507	73.871110	-4.149084	-5.116361
2.711538	-1.095824	1.602179	87.283870	0.200518	0.728336	0.855797	6.623955	-2.938360	17.127356	3.445150	0.060129	22.755005	-10.211539	0.000000	7.074257	1.916315	-13.377498	8.430532	0.147141	31.443010	11.658218	0.000000	0.172987	-0.229867	0.192202	0.321254	-0.305724	0.204215	0.284200	-0.558899	0.204215	0.197707	-0.558899	0.168177	0.160636	-0.468745	0.156164	0.098845	-0.356064	0.144151	1.235629	-2.600305	1.068970	0.000000	0.000000	26.690192	5.851363	-2.765028	11.545977	-11.534778	25.752342	61.227765	87.979084	5.975524	12.471510	13.785421	-12.952649	44.551625	35.518019	75.277945	-3.974327	-4.916576
2.730769	-1.084403	1.603676	87.244480	0.200466	0.728059	0.855764	6.709522	-2.911678	16.926928	3.686347	0.064339	23.010168	-9.998818	0.000000	7.059930	1.915656	-13.390740	8.408176	0.146750	31.554526	11.698687	0.000000	0.162805	-0.228001	0.211694	0.302346	-0.303242	0.224925	0.267473	-0.554362	0.224925	0.186070	-0.554362	0.185232	0.151181	-0.464940	0.172002	0.093027	-0.353174	0.158771	1.162902	-2.579195	1.177380	0.000000	0.000000	26.301666	5.124744	-2.444875	10.917089	-11.475591	25.565276	61.105222	87.625551	5.817093	12.612884	14.495568	-12.657285	46.707964	34.613777	76.928345	-3.901233	-4.957942
2.750000	-1.096686	1.613187	87.187522	0.200451	0.727738	0.855697	6.818364	-2.916717	16.449924	3.998639	0.069789	23.396317	-9.363083	0.000000	7.033539	1.936625	-13.471194	8.397346	0.146561	31.680562	11.762977	0.000000	0.153721	-0.230180	0.231948	0.285474	-0.306139	0.246444	0.252548	-0.559659	0.246444	0.175687	-0.559659	0.202954	0.142745	-0.469383	0.188458	0.087836	-0.356549	0.173961	1.098011	-2.603840	1.290024	0.000000	0.000000	25.894236	4.471664	-2.165876	10.220056	-11.338070	25.320449	60.880593	87.280797	5.622281	12.732775	15.196994	-12.366294	48.996135	33.665818	78.595016	-3.786995	-4.968825
2.769231	-1.127048	1.628761	87.112269	0.200492	0.727382	0.855589	6.939880	-2.940969	15.836611	4.358632	0.076072	23.852618	-8.512821	0.000000	6.996733	1.970418	-13.652208	8.396822	0.146552	31.822516	11.891964	0.000000	0.146221	-0.235466	0.257483	0.271547	-0.313169	0.273576	0.240226	-0.572511	0.273576	0.167116	-0.572511	0.225297	0.135781	-0.480162	0.209205	0.083551	-0.364736	0.193112	1.044441	-2.663636	1.432042	0.000000	0.000000	25.475233	3.921911	-1.912012	9.460645	-11.138658	25.003818	60.564633	86.966531	5.348930	12.763370	15.880562	-12.083419	51.395409	32.673296	80.175169	-3.650492	-5.046028
2.788462	-1.177553	1.650228	87.012574	0.200605	0.727002	0.855458	7.079355	-2.986854	15.039208	4.775803	0.083353	24.396045	-7.366017	0.000000	6.950001	2.021026	-13.904543	8.400337	0.146614	31.971346	12.044107	0.000000	0.139666	-0.244437	0.288717	0.259374	-0.325101	0.306761	0.229457	-0.594324	0.306761	0.159624	-0.594324	0.252627	0.129694	-0.498456	0.234582	0.079805	-0.378633	0.216537	0.997621	-2.765121	1.605755	0.000000	0.000000	25.047933	3.483097	-1.745541	8.683725	-10.910834	24.683961	60.179146	86.699103	4.947757	12.683165	16.483374	-11.838748	53.686001	31.750256	81.665291	-3.478060	-5.044033
2.807692	-1.257979	1.664695	86.903507	0.200799	0.726594	0.855291	7.244001	-3.065562	14.048622	5.244796	0.091539	25.025102	-5.923810	0.000000	6.907547	2.098937	-14.208392	8.402778	0.146656	32.117073	12.215109	0.000000	0.135275	-0.258412	0.324481	0.251218	-0.343688	0.344761	0.222243	-0.628304	0.344761	0.154605	-0.628304	0.283921	0.125616	-0.526954	0.263641	0.077296	-0.400281	0.243361	0.966252	-2.923212	1.804668	0.000000	0.000000	24.626299	3.203817	-1.634258	7.878274	-10.648251	24.322535	59.764380	86.466554	4.386158	12.476906	16.957497	-11.655188	55.721465	30.967818	83.082885	-3.262328	-4.995113
2.826923	-1.350163	1.683089	86.798689	0.201029	0.726199	0.855124	7.401613	-3.159245	13.037914	5.724453	0.099911	25.634642	-4.468681	0.000000	6.862875	2.188759	-14.510634	8.408824	0.146762	32.244736	12.359117	0.000000	0.130120	-0.274640	0.358600	0.241647	-0.365271	0.381012	0.213775	-0.667760	0.381012	0.148715	-0.667760	0.313775	0.120830	-0.560046	0.291362	0.074351	-0.425418	0.268950	0.929438	-3.106784	1.994423	0.000000	0.000000	24.229375	3.057641	-1.550427	7.138398	-10.416371	24.066431	59.306396	86.259988	3.692270	12.061839	17.267959	-11.524002	57.312290	30.386387	84.366604	-2.896318	-4.711461
2.846154	-1.458712	1.703929	86.709867	0.201286	0.725828	0.854969	7.555254	-3.272755	11.974480	6.218522	0.108534	26.239406	-2.964712	0.000000	6.818495	2.293610	-14.828025	8.421079	0.146976	32.342864	12.506306	0.000000	0.124214	-0.293153	0.390587	0.230678	-0.389894	0.414999	0.204072	-0.712772	0.414999	0.141965	-0.712772	0.341764	0.115345	-0.597798	0.317352	0.070976	-0.454094	0.292940	0.887250	-3.316206	2.172329	0.000000	0.000000	23.864525	3.017759	-1.460254	6.462209	-10.212805	23.857557	58.852784	86.055736	2.939920	11.544461	17.416528	-11.461004	58.498085	30.027716	85.505923	-2.534381	-4.332877
2.865385	-1.569914	1.725794	86.609347	0.201593	0.725486	0.854897	7.731616	-3.406079	10.593037	6.758294	0.117954	26.927857	-0.993664	0.000000	6.781642	2.392951	-15.199894	8.453739	0.147546	32.409288	12.666423	0.000000	0.116960	-0.312398	0.424491	0.217206	-0.415489	0.451022	0.192153	-0.759564	0.451022	0.133673	-0.759564	0.371430	0.108609	-0.637042	0.344899	0.066831	-0.483904	0.318368	0.835430	-3.533908	2.360893	0.000000	0.000000	23.569623	3.075537	-1.383133	5.893603	-10.070371	23.755545	58.426158	85.863039	2.103239	10.925778	17.414998	-11.465879	59.253189	29.898570	86.489450	-2.192573	-3.911320
2.884615	-1.674855	1.755672	86.550194	0.201917	0.725202	0.854869	7.863635	-3.523076	9.459666	7.236124	0.126294	27.473397	0.559185	0.000000	6.742964	2.481158	-15.562273	8.504669	0.148434	32.430082	12.831377	0.000000	0.108819	-0.331220	0.447393	0.202087	-0.440523	0.475355	0.178778	-0.805329	0.475355	0.124369	-0.805329	0.391469	0.101049	-0.675425	0.363507	0.062179	-0.513061	0.335545	0.777281	-3.746832	2.488267	0.000000	0.000000	23.339891	3.181674	-1.270207	5.448133	-9.971839	23.729657	58.037482	85.728336	1.326105	10.326564	17.243491	-11.550050	59.549624	30.008333	87.271111	-1.956312	-3.496931
2.903846	-1.754861	1.791203	86.524118	0.202252	0.724979	0.854884	7.950597	-3.607096	8.559639	7.633512	0.133230	27.878590	1.736357	0.000000	6.705783	2.537743	-15.901341	8.577559	0.149707	32.410049	12.990982	0.000000	0.100782	-0.347728	0.464274	0.187162	-0.462479	0.493291	0.165575	-0.845467	0.493291	0.115184	-0.845467	0.406240	0.093586	-0.709088	0.377223	0.057587	-0.538631	0.348205	0.719875	-3.933572	2.582152	0.000000	0.000000	23.204291	3.305597	-1.196934	5.099004	-9.918338	23.670208	57.747383	85.703673	0.774328	9.962356	16.928104	-11.698778	59.431622	30.320279	87.861711	-1.918726	-3.136576
2.923077	-1.817321	1.830955	86.554110	0.202601	0.724831	0.854958	7.988448	-3.664931	7.927753	7.931375	0.138429	28.125888	2.466841	0.000000	6.673139	2.571715	-16.184394	8.664921	0.151231	32.344728	13.149231	0.000000	0.093868	-0.363361	0.464112	0.174321	-0.483270	0.493119	0.154215	-0.883476	0.493119	0.107281	-0.883476	0.406098	0.087165	-0.740966	0.377091	0.053636	-0.562847	0.348084	0.670487	-4.110415	2.581254	0.000000	0.000000	23.166639	3.414703	-1.162571	4.915729	-9.915854	23.718143	57.501578	85.790999	0.388724	9.779497	16.460810	-11.940460	58.883165	30.817350	88.180588	-2.056908	-2.847245
2.942308	-1.841279	1.867964	86.629215	0.202939	0.724753	0.855060	7.973835	-3.678902	7.558717	8.099819	0.141369	28.216031	2.799703	0.000000	6.651367	2.562029	-16.384975	8.765159	0.152981	32.257686	13.293283	0.000000	0.089074	-0.376248	0.454277	0.165420	-0.500410	0.482669	0.146340	-0.914810	0.482669	0.101803	-0.914810	0.397492	0.082714	-0.767246	0.369100	0.050897	-0.582809	0.340708	0.636247	-4.256197	2.526551	0.000000	0.000000	23.237409	3.487268	-1.272690	4.843509	-9.958093	23.741377	57.343207	85.986686	0.252626	9.883724	15.867109	-12.243377	57.944314	31.437634	88.258219	-2.425571	-2.673289
2.961538	-1.825322	1.891028	86.759985	0.203261	0.724757	0.855192	7.911500	-3.647495	7.466723	8.122277	0.141760	28.125875	2.699930	0.000000	6.651687	2.509369	-16.479263	8.866212	0.154745	32.151119	13.425787	0.000000	0.087473	-0.386640	0.427843	0.162446	-0.514231	0.454584	0.143709	-0.940076	0.454584	0.099973	-0.940076	0.374363	0.081227	-0.788436	0.347623	0.049982	-0.598905	0.320883	0.624811	-4.373745	2.379537	0.000000	0.000000	23.399872	3.507561	-1.527483	4.924632	-10.046808	23.868102	57.204720	86.240808	0.158123	10.075768	15.149238	-12.607685	56.567755	32.145511	88.022459	-2.854483	-2.568692
2.980769	-1.779771	1.898171	86.935786	0.203540	0.724833	0.855359	7.821210	-3.580555	7.632887	8.032198	0.140188	27.894789	2.209352	0.000000	6.674561	2.429203	-16.474150	8.956746	0.156325	32.040318	13.536709	0.000000	0.087662	-0.395468	0.390260	0.162797	-0.525972	0.414652	0.144020	-0.961540	0.414652	0.100189	-0.961540	0.341478	0.081403	-0.806438	0.317087	0.050090	-0.612579	0.292695	0.626160	-4.473608	2.170512	0.000000	0.000000	23.631664	3.459821	-1.956162	5.155230	-10.193081	24.053053	57.113757	86.476909	0.197384	10.460634	14.396227	-13.029451	54.962265	32.874424	87.689606	-3.429229	-2.557867
